<?xml version="1.0" encoding="UTF-8"?>
<svg xmlns="http://www.w3.org/2000/svg" width="60" height="60" viewBox="0 0 60 60" fill="none">
  <rect x="22.6796" y="5" width="32.2682" height="30.8015" rx="8" fill="#05B178"></rect>
  <path d="M31.9202 28.0591H23.8381C23.1021 28.0699 22.5104 28.6694 22.5104 29.4061C22.5104 30.1427 23.1021 30.7429 23.8381 30.7531H31.9202C32.6568 30.7429 33.2485 30.1427 33.2485 29.4061C33.2485 28.6694 32.6568 28.0699 31.9202 28.0591Z" fill="#2D2D2D"></path>
  <path d="M29.2262 33.447H23.8381C23.1021 33.4578 22.5104 34.0574 22.5104 34.794C22.5104 35.5307 23.1021 36.1308 23.8381 36.141H29.2262C29.9628 36.1308 30.5545 35.5307 30.5545 34.794C30.5545 34.0574 29.9628 33.4578 29.2262 33.447Z" fill="#2D2D2D"></path>
  <path d="M50.6719 39.7987C51.6034 38.8089 52.1229 37.5016 52.1259 36.1419V13.2429C52.1247 11.8147 51.5565 10.4448 50.5462 9.43462C49.5365 8.42437 48.1667 7.85671 46.7379 7.85486H22.4918C21.0637 7.85666 19.6938 8.42432 18.6836 9.43462C17.6734 10.4449 17.1057 11.8147 17.1038 13.2429V36.1419C17.1092 37.0909 17.3678 38.0211 17.8531 38.836H14.4098V13.2429C14.4086 11.8147 13.8404 10.4448 12.8301 9.43462C11.8204 8.42437 10.4506 7.85671 9.02183 7.85486H6.32782C5.59179 7.86568 5.00006 8.46521 5.00006 9.20186C5.00006 9.93851 5.59179 10.5386 6.32782 10.5489H9.02183C9.73622 10.5501 10.4211 10.8339 10.9256 11.339C11.4308 11.8441 11.7152 12.5291 11.7158 13.2428V38.8359H10.3688C8.93581 38.8522 7.61891 39.6261 6.90693 40.8697C6.19554 42.1132 6.19554 43.6413 6.90693 44.8848C7.61891 46.1284 8.93652 46.9018 10.3688 46.9179H12.465C11.8264 48.0112 11.5943 49.295 11.8102 50.5429C12.0261 51.7906 12.6755 52.9217 13.6437 53.7372C14.6124 54.5526 15.838 55 17.1038 55C18.3703 55 19.5959 54.5526 20.564 53.7372C21.5328 52.9218 22.1823 51.7906 22.3981 50.5429C22.6134 49.2951 22.3813 48.0113 21.7426 46.9179H38.0576C37.4189 48.0112 37.1868 49.295 37.4027 50.5429C37.6186 51.7906 38.268 52.9217 39.2362 53.7372C40.2049 54.5526 41.4305 55 42.6963 55C43.9628 55 45.1884 54.5526 46.1565 53.7372C47.1253 52.9218 47.7748 51.7906 47.9906 50.5429C48.2059 49.2951 47.9738 48.0113 47.3352 46.9179C48.5162 47.1182 49.7248 46.7887 50.6419 46.0183C51.5583 45.2474 52.0899 44.1127 52.0953 42.9155C52.1013 41.7176 51.5805 40.578 50.6713 39.7987H50.6719ZM40.0028 10.5495V14.5905C40.0023 15.3343 39.3997 15.9369 38.6558 15.9375H30.5738C29.8306 15.9369 29.2274 15.3343 29.2268 14.5905V10.5495H40.0028ZM17.1038 52.3066C16.1489 52.2958 15.2709 51.7798 14.7965 50.9512C14.322 50.1219 14.322 49.1033 14.7965 48.2746C15.2709 47.4453 16.1489 46.9294 17.1038 46.9185C18.0593 46.9294 18.9372 47.4453 19.4117 48.2746C19.8861 49.1038 19.8861 50.1219 19.4117 50.9512C18.9372 51.7798 18.0593 52.2958 17.1038 52.3066ZM42.6969 52.3066C41.7419 52.2958 40.864 51.7798 40.3896 50.9512C39.9151 50.1219 39.9151 49.1033 40.3896 48.2746C40.864 47.4453 41.742 46.9294 42.6969 46.9185C43.6524 46.9294 44.5303 47.4453 45.0048 48.2746C45.4792 49.1038 45.4792 50.1219 45.0048 50.9512C44.5303 51.7798 43.6524 52.2958 42.6969 52.3066ZM48.0849 44.2246H10.3688C9.63272 44.2138 9.0416 43.6136 9.0416 42.8776C9.0416 42.1415 9.63271 41.5414 10.3688 41.5306H48.0849C48.8209 41.5414 49.412 42.1415 49.412 42.8776C49.412 43.6142 48.8209 44.2138 48.0849 44.2246ZM49.4319 36.1426C49.4313 36.8569 49.1468 37.5419 48.6417 38.0464C48.1372 38.5515 47.4523 38.8359 46.7379 38.8365H22.4918C21.778 38.8359 21.0931 38.5515 20.588 38.0464C20.0829 37.5419 19.7991 36.8569 19.7978 36.1426V13.2435C19.7991 12.5297 20.0829 11.8448 20.588 11.3397C21.0931 10.8346 21.7781 10.5507 22.4918 10.5495H26.5328V14.5905C26.534 15.6621 26.9604 16.6892 27.7181 17.4469C28.4752 18.2046 29.5029 18.6304 30.5739 18.6316H38.6559C39.7275 18.6304 40.7546 18.2046 41.5123 17.4469C42.27 16.6892 42.6958 15.6621 42.697 14.5905V10.5495H46.738C47.4524 10.5507 48.1373 10.8346 48.6418 11.3397C49.1469 11.8448 49.4314 12.5297 49.432 13.2435L49.4319 36.1426Z" fill="#2D2D2D"></path>
</svg>
