<?xml version="1.0" encoding="UTF-8"?>
<svg xmlns="http://www.w3.org/2000/svg" width="61" height="60" viewBox="0 0 61 60" fill="none">
  <g clip-path="url(#clip0_1_1794)">
    <rect x="8.50986" y="12" width="28.3718" height="25.0982" rx="4" fill="#F84616"></rect>
    <path d="M48.5168 42.0646C48.4963 42.1055 48.4729 42.1464 48.4477 42.184C48.3016 42.4591 48.2198 42.7748 48.2198 43.1095C48.2198 43.6546 48.4382 44.1468 48.7901 44.4987L48.7948 44.5034C49.1467 44.8553 49.6388 45.0737 50.184 45.0737C50.7292 45.0737 51.2213 44.8553 51.5732 44.5034L51.5779 44.4987C51.9298 44.1468 52.1482 43.6547 52.1482 43.1095C52.1482 42.7748 52.0649 42.4573 51.9203 42.184C51.895 42.1446 51.8717 42.1055 51.8512 42.0646C51.7726 41.9389 51.6831 41.8256 51.5794 41.7218L51.5746 41.7171C51.2228 41.3652 50.7306 41.1468 50.1855 41.1468C49.6403 41.1468 49.1482 41.3652 48.7963 41.7171L48.7916 41.7218C48.6893 41.8241 48.5968 41.9403 48.5197 42.0646H48.5168ZM45.7858 34.1091C45.0631 34.1091 44.4767 33.523 44.4767 32.8C44.4767 32.0773 45.0628 31.4909 45.7858 31.4909H47.6682C48.3909 31.4909 48.9773 32.0769 48.9773 32.8C48.9773 33.5227 48.3912 34.1091 47.6682 34.1091H45.7858ZM45.6097 42.7832H25.3101C25.3182 42.8917 25.3211 43.0017 25.3211 43.1116C25.3211 44.3703 24.8074 45.5157 23.9777 46.347L23.9729 46.3517C23.1403 47.1829 21.9963 47.6951 20.7376 47.6951C19.4789 47.6951 18.3335 47.1814 17.5023 46.3517L17.4975 46.347C16.6663 45.5143 16.1541 44.3703 16.1541 43.1116C16.1541 43.0017 16.1574 42.8917 16.1651 42.7832H14.6536C13.5129 42.7832 12.4741 42.3166 11.723 41.5654C10.9718 40.8141 10.5052 39.7754 10.5052 38.6333V16.84C10.5052 16.1173 11.0912 15.5309 11.8143 15.5309H41.3306C42.0533 15.5309 42.6397 16.1169 42.6397 16.84V19.1359H47.5989C50.1996 19.1359 52.5646 20.2014 54.2803 21.9157L54.2851 21.9204C55.7089 23.3457 56.6863 25.2186 56.9753 27.3022C57.8617 27.3713 58.6629 27.7641 59.2599 28.3596L59.2647 28.3644C59.9231 29.0242 60.3334 29.9326 60.3334 30.9304V41.4725C60.3334 42.1952 59.7474 42.7816 59.0243 42.7816H54.7503C54.7583 42.8902 54.7612 43.0001 54.7612 43.1101C54.7612 44.3688 54.2475 45.5142 53.4178 46.3454L53.4131 46.3502C52.5804 47.1814 51.4364 47.6936 50.1778 47.6936C48.9191 47.6936 47.7737 47.1799 46.9424 46.3502L46.9377 46.3454C46.1065 45.5128 45.5943 44.3688 45.5943 43.1101C45.5943 43.0001 45.5976 42.8902 45.6052 42.7816L45.6097 42.7832ZM53.685 40.1635H57.7186V30.93C57.7186 30.6486 57.6039 30.3925 57.4216 30.2073C57.2364 30.0235 56.9817 29.9102 56.6989 29.9102H42.6455V40.1634H46.6791C46.7639 40.0643 46.8505 39.9686 46.9433 39.8758L46.948 39.8711C47.7807 39.0399 48.9247 38.5276 50.1834 38.5276C51.442 38.5276 52.5874 39.0414 53.4187 39.8711L53.4234 39.8758C53.5144 39.9686 53.6043 40.0643 53.6876 40.1634L53.685 40.1635ZM22.4748 42.181C22.451 42.1434 22.4276 42.1057 22.4086 42.0677C22.3301 41.9421 22.2391 41.8259 22.1353 41.7221L22.1306 41.7174C21.7787 41.3655 21.2866 41.147 20.7414 41.147C20.1963 41.147 19.7041 41.3655 19.3523 41.7174L19.3475 41.7221C19.2437 41.8259 19.1528 41.9421 19.0742 42.0677C19.0538 42.1072 19.0318 42.1448 19.0081 42.181C18.8619 42.4576 18.7786 42.7733 18.7786 43.1112C18.7786 43.6563 18.9971 44.1485 19.349 44.5004L19.3537 44.5051C19.7056 44.857 20.1977 45.0755 20.7429 45.0755C21.288 45.0755 21.7802 44.857 22.132 44.5051L22.1368 44.5004C22.4886 44.1485 22.7071 43.6564 22.7071 43.1112C22.7071 42.7733 22.6238 42.4576 22.4777 42.181H22.4748ZM24.2442 40.1635H40.0252V18.1476H13.1278V38.6305C13.1278 39.0499 13.3006 39.4335 13.5772 39.7116C13.8537 39.9882 14.237 40.161 14.6568 40.161H17.237C17.3203 40.062 17.4084 39.9663 17.5012 39.8735L17.5059 39.8687C18.3386 39.0375 19.4826 38.5253 20.7413 38.5253C22 38.5253 23.1454 39.039 23.9766 39.8687L23.9813 39.8735C24.0723 39.9663 24.1604 40.0606 24.2437 40.161L24.2442 40.1635ZM42.6451 27.2923H54.3237C54.058 25.9299 53.3854 24.7106 52.4413 23.7647C51.1998 22.525 49.4869 21.7567 47.6031 21.7567H42.6439V27.2941L42.6451 27.2923Z" fill="#2D2D2D"></path>
    <path d="M0.333405 22.6351C0.333405 23.3581 0.919804 23.9442 1.6425 23.9442H14.5754C15.2984 23.9442 15.8845 23.3578 15.8845 22.6351C15.8845 21.912 15.2981 21.326 14.5754 21.326H1.6425C0.919448 21.326 0.333405 21.9124 0.333405 22.6351Z" fill="#2D2D2D"></path>
    <path d="M5.73422 27.0553C5.73422 27.7783 6.32061 28.3644 7.04331 28.3644H19.9762C20.6992 28.3644 21.2853 27.778 21.2853 27.0553C21.2853 26.3322 20.6989 25.7462 19.9762 25.7462H7.04331C6.32026 25.7462 5.73422 26.3326 5.73422 27.0553Z" fill="#2D2D2D"></path>
    <path d="M1.68597 31.4909C1.68597 32.2139 2.27237 32.8 2.99507 32.8H15.9279C16.651 32.8 17.237 32.2136 17.237 31.4909C17.237 30.7678 16.6506 30.1818 15.9279 30.1818H2.99507C2.27202 30.1818 1.68597 30.7682 1.68597 31.4909Z" fill="#2D2D2D"></path>
  </g>
  <defs>
    <clipPath id="clip0_1_1794">
      <rect width="60" height="60" fill="white" transform="translate(0.333344)"></rect>
    </clipPath>
  </defs>
</svg>
