<?xml version="1.0" encoding="UTF-8"?>
<svg xmlns="http://www.w3.org/2000/svg" width="60" height="60" viewBox="0 0 60 60" fill="none">
  <path d="M45.1358 13.3785H25.4501C22.1364 13.3785 19.4274 16.0639 19.341 19.3765C18.9434 34.6282 18.381 56.3785 35.2262 56.3785C52.9709 56.3785 51.8412 34.5457 51.2832 19.3762C51.1614 16.0647 48.4495 13.3785 45.1358 13.3785Z" fill="#FAD01D"></path>
  <path d="M42.1018 4H17.9578C16.1796 4.00167 14.4743 4.70915 13.2171 5.96637C11.9595 7.22397 11.252 8.92883 11.25 10.7071V31.9291C11.246 35.6433 12.3446 39.2755 14.4067 42.3649C16.4689 45.4539 19.4019 47.8616 22.8338 49.2819C26.2657 50.7025 30.0422 51.0722 33.6844 50.3443C37.3265 49.6164 40.6708 47.8231 43.2929 45.1925C45.0437 43.4564 46.4329 41.3903 47.3798 39.1135C48.3267 36.8366 48.8125 34.3948 48.8092 31.9292V10.7072C48.8071 8.929 48.0997 7.22406 46.8421 5.96646C45.5848 4.7092 43.8796 4.00171 42.1013 4.00009L42.1018 4ZM47.3023 31.9291C47.3023 36.5101 45.4826 40.9034 42.2434 44.1426C39.004 47.3816 34.6108 49.2014 30.03 49.2014C25.4492 49.2014 21.0557 47.3817 17.8166 44.1426C14.5775 40.9032 12.7577 36.51 12.7577 31.9291V10.7071C12.7591 9.32834 13.3075 8.00646 14.2825 7.03146C15.2575 6.05646 16.5794 5.50831 17.9582 5.50669H42.1022C43.481 5.50836 44.8029 6.05647 45.7779 7.03146C46.7529 8.00645 47.3013 9.32834 47.3026 10.7071L47.3023 31.9291ZM41.7058 17.3851L41.6806 17.3644C41.1212 16.8976 40.4074 16.6576 39.6797 16.6911C38.9518 16.7242 38.2631 17.0289 37.7488 17.5445L28.7034 26.5488L25.4724 23.4406L25.4727 23.4403C24.9354 22.928 24.2192 22.6458 23.4769 22.6528C22.7343 22.6602 22.0241 22.9565 21.4967 23.4795L21.4823 23.4939C20.9332 24.043 20.6285 24.7899 20.6369 25.5664C20.6453 26.3426 20.966 27.0828 21.5265 27.6202L26.6908 32.5685C27.2486 33.0972 27.9909 33.3872 28.7594 33.3774C29.5281 33.3674 30.2624 33.058 30.8065 32.515L41.8962 21.3473C42.4282 20.8116 42.7105 20.077 42.674 19.323C42.6375 18.5689 42.2856 17.8648 41.7044 17.383L41.7058 17.3851ZM40.8286 20.288L29.7388 31.4557C29.474 31.7203 29.1164 31.8709 28.7421 31.8756C28.3677 31.8803 28.0065 31.7387 27.7353 31.4809L22.5703 26.5326C22.3024 26.2758 22.1494 25.9215 22.1457 25.5502C22.1417 25.1789 22.2877 24.822 22.5502 24.5594L22.5636 24.5444C22.811 24.2989 23.1445 24.16 23.4931 24.1566C23.842 24.1533 24.1778 24.2862 24.4303 24.5269L28.1924 28.1461C28.4877 28.4303 28.9558 28.4263 29.2461 28.137L38.8126 18.6124C39.0621 18.3623 39.3959 18.2147 39.7492 18.1983C40.1021 18.1819 40.4483 18.2984 40.7198 18.5244L40.7442 18.5448C41 18.7564 41.1547 19.0661 41.1708 19.3976C41.1869 19.7294 41.063 20.0525 40.8289 20.2883L40.8286 20.288Z" fill="#2D2D2D" stroke="#2D2D2D"></path>
</svg>
